<?xml version="1.0" standalone="no"?>
<!DOCTYPE svg PUBLIC "-//W3C//DTD SVG 20010904//EN"
 "http://www.w3.org/TR/2001/REC-SVG-20010904/DTD/svg10.dtd">
<svg version="1.0" xmlns="http://www.w3.org/2000/svg"
 width="512.000000pt" height="512.000000pt" viewBox="0 0 512.000000 512.000000"
 preserveAspectRatio="xMidYMid meet">

<g transform="translate(0.000000,512.000000) scale(0.100000,-0.100000)"
fill="#000000" stroke="none">
<path d="M1712 4879 c-220 -39 -441 -208 -547 -419 -72 -143 -78 -178 -83
-460 -4 -288 2 -338 54 -448 117 -245 412 -373 674 -293 271 84 471 294 546
576 16 59 19 109 19 325 0 242 -1 259 -24 328 -57 175 -194 313 -367 371 -73
24 -198 34 -272 20z"/>
<path d="M3213 4880 c-237 -43 -426 -240 -464 -482 -17 -109 -6 -484 16 -568
74 -277 276 -488 545 -571 308 -95 636 93 716 410 13 52 15 108 12 325 -5 293
-11 325 -89 477 -96 185 -277 333 -478 393 -69 20 -191 28 -258 16z"/>
<path d="M431 3384 c-86 -23 -171 -74 -241 -144 -75 -76 -121 -148 -158 -252
-23 -64 -26 -88 -26 -193 1 -104 6 -139 38 -265 46 -183 78 -250 156 -324 88
-84 169 -118 290 -124 79 -3 106 0 159 18 169 57 316 211 374 395 18 57 22 93
22 190 -1 105 -5 138 -38 264 -46 178 -69 230 -136 303 -109 119 -288 173
-440 132z"/>
<path d="M4476 3384 c-82 -20 -168 -68 -221 -125 -49 -52 -57 -87 -30 -126 14
-20 13 -31 -13 -120 -27 -94 -29 -98 -61 -104 -17 -4 -38 -15 -46 -25 -41 -55
-44 -274 -6 -394 58 -183 218 -347 385 -395 43 -13 83 -16 150 -13 117 6 200
42 286 124 78 74 110 141 156 324 32 127 37 160 37 265 0 104 -3 130 -26 193
-56 160 -166 291 -298 356 -114 56 -201 67 -313 40z"/>
<path d="M2374 3096 c-103 -20 -180 -44 -264 -82 -99 -46 -122 -68 -118 -115
3 -35 -1 -39 -71 -94 -66 -51 -76 -56 -98 -46 -13 6 -36 11 -50 11 -36 0 -151
-90 -296 -230 -334 -322 -526 -721 -567 -1180 -32 -347 67 -623 301 -844 168
-159 371 -250 614 -276 125 -14 256 -3 403 34 241 61 423 61 664 0 212 -53
407 -53 594 2 349 101 611 364 702 703 22 84 25 116 25 256 -1 392 -128 762
-373 1087 -106 141 -280 306 -500 475 -305 235 -467 301 -750 309 -95 2 -169
-1 -216 -10z"/>
</g>
</svg>
